<svg width="188" height="210" viewBox="0 0 188 210" fill="none" xmlns="http://www.w3.org/2000/svg">
<path d="M114.454 71.0261L75.4721 6.94577C72.933 2.614 68.3776 0 63.3741 0H14.1607C3.33225 0 -3.46353 11.651 1.83867 21.0614C11.6936 38.4984 25.6026 53.3053 42.3893 64.2297C48.0649 68.6362 55.0847 71.0261 62.3286 71.0261H114.454Z" fill="#1D2E8E"/>
<path d="M173.376 0H124.163C119.159 0 114.604 2.614 112.065 6.94577L73.0825 71.0261H125.283C132.527 71.0261 139.472 68.6362 145.222 64.2297C162.025 53.3256 175.915 38.5378 185.773 21.0614C191.001 11.651 184.205 0 173.376 0Z" fill="#5F6BAB"/>
<path d="M93.7096 209.12C135.119 209.12 168.687 174.712 168.687 132.268C168.687 89.8244 135.119 55.4167 93.7096 55.4167C52.3001 55.4167 18.7319 89.8244 18.7319 132.268C18.7319 174.712 52.3001 209.12 93.7096 209.12Z" fill="#D3883E"/>
<path d="M93.7845 199.859C76.1602 199.859 59.5815 192.839 47.1848 180.067C34.7096 167.294 27.7617 150.124 27.843 132.268C27.843 114.195 34.7135 97.2409 47.1848 84.4696C53.236 78.2155 60.483 73.2423 68.4949 69.8459C76.5068 66.4495 85.1199 64.6992 93.8218 64.6992C102.524 64.6992 111.137 66.4495 119.149 69.8459C127.161 73.2423 134.408 78.2155 140.459 84.4696C166.148 110.834 166.148 153.703 140.459 180.067C127.913 192.839 111.334 199.859 93.7845 199.859ZM93.7098 73.8643C79.1474 73.8643 64.5103 79.5404 53.4579 90.9673C42.7049 102.017 36.724 116.85 36.8045 132.268C36.8045 147.878 42.7041 162.516 53.4579 173.57C58.6719 178.982 64.9243 183.286 71.8406 186.225C78.757 189.163 86.1951 190.676 93.7098 190.673C108.944 190.673 123.208 184.623 133.962 173.57C156.141 150.791 156.141 113.746 133.962 90.9673C128.753 85.5484 122.502 81.2397 115.584 78.3004C108.667 75.3612 101.226 73.8522 93.7098 73.8643Z" fill="#F3AD61"/>
<path d="M104.253 121.551L112.08 108.033C112.718 106.923 113.054 105.665 113.054 104.384C113.054 103.104 112.718 101.846 112.08 100.736C111.444 99.6262 110.526 98.7043 109.419 98.0642C108.312 97.424 107.055 97.0884 105.777 97.0913H82.6859C80.7922 97.1519 78.9964 97.9469 77.6783 99.308C76.3602 100.669 75.6232 102.49 75.6232 104.384C75.6232 106.279 76.3602 108.1 77.6783 109.461C78.9964 110.822 80.7922 111.617 82.6859 111.677H93.1634L87.5475 121.469C86.5203 122.737 85.9566 124.318 85.9494 125.95C85.9494 129.983 89.2203 133.247 93.2455 133.247C97.8009 133.247 101.52 136.966 101.52 141.522C101.52 146.078 97.8009 149.805 93.2455 149.805C89.7505 149.805 86.6364 147.601 85.4938 144.33C84.8436 142.523 83.5055 141.045 81.771 140.22C80.0365 139.395 78.0463 139.288 76.2337 139.924C75.3325 140.238 74.5027 140.728 73.7923 141.366C73.0819 142.003 72.5051 142.776 72.0953 143.638C71.6855 144.5 71.4508 145.435 71.4049 146.388C71.3589 147.341 71.5026 148.295 71.8276 149.192C73.4153 153.605 76.3221 157.423 80.1537 160.127C83.9852 162.831 88.5559 164.291 93.2455 164.308C99.2846 164.303 105.075 161.901 109.345 157.63C113.615 153.359 116.017 147.569 116.023 141.529C116.013 137.454 114.918 133.454 112.849 129.943C110.781 126.431 107.813 123.534 104.253 121.551Z" fill="#402A32"/>
</svg>
