<svg width="189" height="210" viewBox="0 0 189 210" fill="none" xmlns="http://www.w3.org/2000/svg">
<path d="M115.181 71.5079L76.1977 7.42836C73.6586 3.09664 69.1031 0.482666 64.0995 0.482666H14.8851C4.05643 0.482666 -2.73948 12.1335 2.56283 21.5438C12.4179 38.9806 26.3273 53.7874 43.1143 64.7116C48.79 69.118 55.81 71.5079 63.054 71.5079H115.181Z" fill="#1D2E8E"/>
<path d="M174.103 0.482666H124.889C119.885 0.482666 115.33 3.09664 112.791 7.42836L73.8076 71.5079H126.009C133.253 71.5079 140.199 69.118 145.949 64.7116C162.752 53.8076 176.643 39.02 186.5 21.5438C191.728 12.1335 184.932 0.482666 174.103 0.482666Z" fill="#5F6BAB"/>
<path d="M94.2111 209.608C135.621 209.608 169.19 175.2 169.19 132.757C169.19 90.3136 135.621 55.9062 94.2111 55.9062C52.8008 55.9062 19.2319 90.3136 19.2319 132.757C19.2319 175.2 52.8008 209.608 94.2111 209.608Z" fill="#BEBEBE"/>
<path d="M94.2116 200.347C76.587 200.347 60.008 193.326 47.611 180.555C35.1355 167.782 28.1874 150.612 28.2688 132.757C28.2688 114.683 35.1394 97.7297 47.611 84.9586C53.6623 78.7046 60.9095 73.7314 68.9215 70.3351C76.9336 66.9387 85.5468 65.1885 94.2489 65.1885C102.951 65.1885 111.564 66.9387 119.576 70.3351C127.588 73.7314 134.836 78.7046 140.887 84.9586C166.577 111.322 166.577 154.191 140.887 180.555C128.341 193.326 111.761 200.347 94.2116 200.347ZM94.1369 74.3534C79.5742 74.3534 64.9369 80.0294 53.8842 91.4562C43.131 102.506 37.15 117.338 37.2304 132.757C37.2304 148.366 43.1302 163.004 53.8842 174.058C59.0983 179.47 65.3508 183.774 72.2673 186.712C79.1838 189.651 86.6221 191.164 94.1369 191.16C109.372 191.16 123.636 185.111 134.39 174.058C156.57 151.279 156.57 114.235 134.39 91.4562C129.181 86.0374 122.929 81.7287 116.012 78.7895C109.094 75.8503 101.653 74.3413 94.1369 74.3534Z" fill="#E6E6E6"/>
<path d="M108.237 164.416H78.5885C77.1601 164.419 75.7606 164.013 74.5561 163.245C73.3516 162.478 72.3925 161.381 71.7925 160.084C71.1743 158.798 70.9372 157.363 71.1092 155.946C71.2813 154.53 71.8553 153.193 72.7634 152.093L97.4079 121.845C99.3496 119.456 98.4535 116.916 98.1547 116.169C97.8042 115.302 97.207 114.557 96.4371 114.026C95.6671 113.495 94.7583 113.202 93.8233 113.182H93.4499C91.0601 113.182 88.8944 114.302 87.4754 116.244C85.0857 119.605 80.3808 120.426 76.9455 118.037C76.1353 117.464 75.4461 116.737 74.9174 115.897C74.3887 115.057 74.0308 114.121 73.8643 113.143C73.6979 112.165 73.726 111.164 73.9471 110.196C74.1683 109.229 74.5781 108.315 75.1532 107.506C79.3353 101.606 86.1312 98.0957 93.3752 98.0957H94.346C101.963 98.4691 108.61 103.025 111.747 109.971C114.958 117.14 113.912 125.281 108.983 131.33L94.4207 149.255H108.162C112.344 149.255 115.705 152.616 115.705 156.798C115.705 160.98 112.419 164.416 108.237 164.416Z" fill="#636363"/>
</svg>
