<svg width="112" height="124" viewBox="0 0 112 124" fill="none" xmlns="http://www.w3.org/2000/svg">
<path d="M108.75 120.5H80L55.5 62L29.4375 120.5H3L14.75 3H97L108.75 120.5Z" stroke="#1D2E8E" stroke-width="6" stroke-linecap="round" stroke-linejoin="round"/>
<path d="M55.4454 54.8592C51.3333 54.3605 48.3234 51.2895 48.7224 47.9998L63.6133 49.8059C63.2143 53.0955 59.5575 55.3579 55.4454 54.8592Z" fill="black" stroke="black" stroke-width="2" stroke-linecap="round" stroke-linejoin="round"/>
<line x1="7" y1="109.5" x2="33" y2="109.5" stroke="#1D2E8E" stroke-width="3"/>
<line x1="77" y1="109.5" x2="109" y2="109.5" stroke="#1D2E8E" stroke-width="3"/>
<path d="M87.0994 29.2477C90.378 28.1884 91.9461 24.7118 90.5655 21.4939C89.1849 18.2452 85.3825 16.4745 82.1039 17.5369C78.8253 18.5993 77.2539 22.0728 78.6345 25.2938C80.0151 28.5118 83.8175 30.3132 87.0961 29.2508M45.2988 21.5062C46.6762 24.7241 45.1113 28.2008 41.8327 29.2631C38.5509 30.2916 34.7485 28.5241 33.3678 25.3031C31.9904 22.0851 33.5554 18.5777 36.834 17.5461C40.1158 16.4838 43.9182 18.2544 45.2988 21.5062Z" fill="black"/>
<path d="M100.799 28.3854V26.4885H100.809V20.3175C100.809 20.1912 100.825 20.1327 100.828 20.1173L100.854 20.0619L101.019 19.8556C101.129 19.7386 101.255 19.6123 101.468 19.4091L101.53 19.3475C102.377 18.5314 103.974 16.9948 104 14.2142V14.1403C103.997 12.5146 103.319 10.9561 102.113 9.80548C100.908 8.65484 99.2726 8.0057 97.5657 8H68.401C68.0475 8 67.6994 8.02669 67.3566 8.08006C64.3808 8.42949 61.6232 9.74803 59.5514 11.8123C59.2668 12.0709 59.0017 12.3234 58.7754 12.539L58.7624 12.5513C58.022 13.2534 57.6502 13.586 57.2331 13.8138C56.9097 13.9894 56.4344 14.1711 55.5097 14.1711C54.5235 14.1711 54.045 13.9863 53.7411 13.82C53.3369 13.6045 52.9748 13.2811 52.2182 12.5544L52.202 12.539C51.953 12.3019 51.662 12.0186 51.3387 11.7291C49.2966 9.72544 46.6003 8.44202 43.6919 8.0893C43.3309 8.03011 42.9653 8.00024 42.599 8H13.4343C9.84533 8 7 10.8022 7 14.1557V14.1587C7 16.9825 8.649 18.5438 9.51553 19.3629L9.5802 19.4245C9.80007 19.6308 9.93263 19.757 10.0458 19.8802C10.1225 19.9624 10.1897 20.0522 10.2463 20.1481C10.2635 20.2114 10.2701 20.2769 10.2657 20.3421V20.7332C10.2527 20.9845 10.2463 21.236 10.2463 21.4876V28.3854C10.2463 38.9107 18.5559 48.001 29.4296 48.001H35.809C46.8993 48.001 55.5 38.7475 55.5 27.9235C55.5 38.7475 64.0813 47.9702 75.1813 47.9702H81.5671C92.3923 47.9702 100.799 38.9692 100.799 28.3854ZM94.3097 28.3546C94.3097 35.7451 88.6999 41.8885 81.538 41.8885H75.149C67.7446 41.8885 61.9893 35.5604 61.9893 27.8927V21.4876C62.0152 17.4537 64.9122 14.1587 68.8213 14.1587H87.4453C91.3577 14.1587 94.3097 17.4537 94.3097 21.4876V28.3546ZM35.809 41.8854H29.4587C22.3034 41.8854 16.7097 35.7759 16.7097 28.3854V21.4876C16.7097 17.4537 19.652 14.1587 23.5547 14.1587H42.1884C46.0942 14.1587 49.0527 17.4537 49.0527 21.4876V27.9235C49.0527 35.5604 43.2327 41.8854 35.809 41.8854Z" fill="black"/>
</svg>
