<svg width="188" height="210" viewBox="0 0 188 210" fill="none" xmlns="http://www.w3.org/2000/svg">
<path d="M114.454 71.0261L75.4721 6.94577C72.933 2.614 68.3776 0 63.3741 0H14.1607C3.33225 0 -3.46353 11.651 1.83867 21.0614C11.6936 38.4984 25.6026 53.3053 42.3893 64.2297C48.0649 68.6362 55.0847 71.0261 62.3286 71.0261H114.454Z" fill="#1D2E8E"/>
<path d="M173.376 0H124.163C119.159 0 114.604 2.614 112.065 6.94577L73.0825 71.0261H125.283C132.527 71.0261 139.472 68.6362 145.222 64.2297C162.025 53.3256 175.915 38.5378 185.773 21.0614C191.001 11.651 184.205 0 173.376 0Z" fill="#5F6BAB"/>
<path d="M93.7086 209.12C135.118 209.12 168.686 174.712 168.686 132.268C168.686 89.8244 135.118 55.4167 93.7086 55.4167C52.2991 55.4167 18.731 89.8244 18.731 132.268C18.731 174.712 52.2991 209.12 93.7086 209.12Z" fill="#FFB02E"/>
<path d="M79.415 104.866C79.415 102.885 80.2018 100.986 81.6023 99.5852C83.0028 98.1846 84.9023 97.3977 86.8829 97.3977H93.7833C95.7639 97.3977 97.6634 98.1846 99.0639 99.5852C100.464 100.986 101.251 102.885 101.251 104.866V156.84C101.251 158.821 100.464 160.721 99.0639 162.121C97.6634 163.522 95.7639 164.309 93.7833 164.309C91.8027 164.309 89.9032 163.522 88.5027 162.121C87.1022 160.721 86.3154 158.821 86.3154 156.84V112.312C84.4386 112.169 82.6851 111.323 81.4056 109.942C80.1262 108.562 79.4152 106.749 79.415 104.866Z" fill="#6D4534"/>
<path d="M93.783 199.859C76.1588 199.859 59.5801 192.839 47.1834 180.067C34.7081 167.294 27.7602 150.124 27.8415 132.268C27.8415 114.195 34.712 97.2409 47.1834 84.4696C53.2345 78.2155 60.4816 73.2423 68.4935 69.8459C76.5053 66.4495 85.1184 64.6992 93.8203 64.6992C102.522 64.6992 111.135 66.4495 119.147 69.8459C127.159 73.2423 134.406 78.2155 140.457 84.4696C166.147 110.834 166.147 153.703 140.457 180.067C127.911 192.839 111.333 199.859 93.783 199.859ZM93.7083 73.8643C79.1459 73.8643 64.5089 79.5404 53.4564 90.9673C42.7035 102.017 36.7226 116.85 36.803 132.268C36.803 147.878 42.7026 162.516 53.4564 173.57C58.6705 178.982 64.9228 183.286 71.8392 186.225C78.7555 189.163 86.1936 190.676 93.7083 190.673C108.943 190.673 123.206 184.623 133.96 173.57C156.14 150.791 156.14 113.746 133.96 90.9673C128.751 85.5484 122.5 81.2397 115.583 78.3004C108.665 75.3612 101.224 73.8522 93.7083 73.8643Z" fill="#FCD53F"/>
</svg>
